HIERARCHY
ROOT Hips
{
	OFFSET -3.958830 18.904000 13.208200
	CHANNELS 6 Xposition Yposition Zposition Zrotation Yrotation Xrotation 
	JOINT LHipJoint
	{
		OFFSET 0.000000 0.000000 0.000000
		CHANNELS 3 Zrotation Yrotation Xrotation
		JOINT LeftUpLeg
		{
			OFFSET 1.800000 -1.400000 0.085000
			CHANNELS 3 Zrotation Yrotation Xrotation
			JOINT LeftLeg
			{
				OFFSET 2.215000 -6.000000 0.000000
				CHANNELS 3 Zrotation Yrotation Xrotation
				JOINT LeftFoot
				{
					OFFSET 2.500000 -6.900000 0.000000
					CHANNELS 3 Zrotation Yrotation Xrotation
					JOINT LeftToeBase
					{
						OFFSET 0.200000 -0.500000 1.950000
						CHANNELS 3 Zrotation Yrotation Xrotation
						End Site
						{
							OFFSET 0.000000 0.000000 0.000000
						}
					}
				}
			}
		}
	}
	JOINT RHipJoint
	{
		OFFSET 0.000000 0.000000 0.000000
		CHANNELS 3 Zrotation Yrotation Xrotation
		JOINT RightUpLeg
		{
			OFFSET -1.800000 -1.400000 0.085000
			CHANNELS 3 Zrotation Yrotation Xrotation
			JOINT RightLeg
			{
				OFFSET -2.215000 -6.000000 0.000000
				CHANNELS 3 Zrotation Yrotation Xrotation
				JOINT RightFoot
				{
					OFFSET -2.500000 -6.900000 0.000000
					CHANNELS 3 Zrotation Yrotation Xrotation
					JOINT RightToeBase
					{
						OFFSET -0.200000 -0.500000 1.950000
						CHANNELS 3 Zrotation Yrotation Xrotation
						End Site
						{
							OFFSET 0.000000 0.000000 0.000000
						}
					}
				}
			}
		}
	}
	JOINT LowerBack
	{
		OFFSET 0.000000 0.000000 0.000000
		CHANNELS 3 Zrotation Yrotation Xrotation
		JOINT Spine
		{
			OFFSET -0.087000 1.940000 -0.288900
			CHANNELS 3 Zrotation Yrotation Xrotation
			JOINT Spine1
			{
				OFFSET 0.000000 1.950000 0.060000
				CHANNELS 3 Zrotation Yrotation Xrotation
				JOINT Neck
				{
					OFFSET 0.000000 0.000000 0.000000
					CHANNELS 3 Zrotation Yrotation Xrotation
					JOINT Neck1
					{
						OFFSET 0.000000 1.600000 0.340000
						CHANNELS 3 Zrotation Yrotation Xrotation
						JOINT Head
						{
							OFFSET 0.000000 1.667000 -0.240000
							CHANNELS 3 Zrotation Yrotation Xrotation
							End Site
							{
								OFFSET 0.000000 0.000000 0.000000
							}
						}
					}
				}
				JOINT LeftShoulder
				{
					OFFSET 0.000000 0.000000 0.000000
					CHANNELS 3 Zrotation Yrotation Xrotation
					JOINT LeftArm
					{
						OFFSET 2.700000 1.550000 -0.730000
						CHANNELS 3 Zrotation Yrotation Xrotation
						JOINT LeftForeArm
						{
							OFFSET 5.450000 0.000000 0.000000
							CHANNELS 3 Zrotation Yrotation Xrotation
							JOINT LeftHand
							{
								OFFSET 3.450000 0.000000 0.000000
								CHANNELS 3 Zrotation Yrotation Xrotation
								JOINT LeftHandIndex1
								{
									OFFSET 0.750000 0.000000 0.000000
									CHANNELS 3 Zrotation Yrotation Xrotation
									End Site
									{
										OFFSET 0.000000 0.000000 0.000000
									}
								}
							}
						}
					}
				}
				JOINT RightShoulder
				{
					OFFSET 0.000000 0.000000 0.000000
					CHANNELS 3 Zrotation Yrotation Xrotation
					JOINT RightArm
					{
						OFFSET -2.700000 1.550000 -0.730000
						CHANNELS 3 Zrotation Yrotation Xrotation
						JOINT RightForeArm
						{
							OFFSET -5.450000 0.000000 0.000000
							CHANNELS 3 Zrotation Yrotation Xrotation
							JOINT RightHand
							{
								OFFSET -3.450000 0.000000 0.000000
								CHANNELS 3 Zrotation Yrotation Xrotation
								JOINT RightHandIndex1
								{
									OFFSET -0.750000 0.000000 0.000000
									CHANNELS 3 Zrotation Yrotation Xrotation
									End Site
									{
										OFFSET 0.000000 0.000000 0.000000
									}
								}
							}
						}
					}
				}
			}
		}
	}
}
MOTION
Frames: 14
Frame Time: 0.016667
0.442220 16.695070 -2.873690 3.823054 33.195484 -7.200727 -14.840704 12.141338 2.994215 -2.033173 0.580360 2.029047 -12.704066 7.281992 10.840987 0.746895 4.362740 3.181879 0.542040 0.141900 0.710000 18.663875 -11.805800 2.389686 -16.297129 1.183932 -19.802830 8.843440 -14.191522 44.854061 -1.184606 -7.373546 1.575704 -0.329370 -0.425840 0.251190 -5.729648 0.534630 -7.510097 41.730899 -18.940327 9.945721 -44.473392 -4.989098 11.845979 15.603181 -4.995531 -20.113289 -19.561777 -3.587053 58.595736 5.989230 -21.523280 -11.189800 -12.434184 -1.564969 1.936732 -55.288313 7.892892 -17.333735 -0.552135 -33.157710 -2.469623 -2.572920 3.342579 0.599160 -0.565920 0.533700 0.129650 -19.932686 15.890186 18.933638 0.872825 -5.242932 -2.638793 -8.146029 6.724983 0.677445 3.200279 -1.152787 0.338760 -0.241280 -0.507480 0.051390 
0.441390 16.692500 -2.873320 4.033419 33.284163 -7.068946 -14.839294 12.121598 2.994566 -2.218036 0.617230 2.062964 -12.688295 7.269621 10.821963 0.747733 4.348814 3.183457 0.548430 0.148550 0.713710 18.670017 -11.798275 2.399254 -16.546563 1.179776 -20.040664 8.867561 -14.309425 45.132354 -1.196282 -7.426124 1.559074 -0.328100 -0.432630 0.250600 -5.740294 0.549238 -7.517839 41.603400 -18.873050 9.921600 -44.451691 -4.951484 11.817176 15.490504 -4.902926 -20.181011 -19.426230 -3.585513 58.834973 6.158850 -21.513840 -11.199550 -12.377352 -1.739281 2.093465 -55.212604 8.100178 -17.475664 -0.751004 -33.525323 -2.450319 -2.560883 3.349547 0.602780 -0.569210 0.537680 0.131060 -19.766413 15.875672 18.941964 0.725156 -5.399235 -2.526483 -8.005076 6.392467 0.679315 3.209081 -1.123847 0.342120 -0.245010 -0.512330 0.049270 
0.440900 16.689240 -2.874140 4.322887 33.415587 -6.916368 -14.839856 12.099082 2.996005 -2.456425 0.691126 2.160340 -12.670590 7.252106 10.745231 0.755937 4.330032 3.186312 0.552530 0.159200 0.708300 18.676636 -11.778810 2.415546 -16.916974 1.171741 -20.426375 8.892321 -14.508235 45.640921 -1.214331 -7.523264 1.527398 -0.325180 -0.438260 0.248550 -5.748315 0.549360 -7.527421 41.465271 -18.859310 9.924716 -44.414965 -4.971077 11.760826 15.372217 -4.893815 -20.256548 -19.477084 -3.523090 58.924476 6.290950 -21.524100 -11.045520 -12.358838 -1.942359 2.254427 -54.987679 8.356339 -17.568625 -1.083534 -33.824357 -2.372970 -2.546720 3.363439 0.599240 -0.571350 0.540480 0.136050 -19.542007 15.881438 18.940777 0.593070 -5.614235 -2.443764 -8.003201 5.969257 0.669159 3.230941 -1.098384 0.348070 -0.250530 -0.517810 0.052510 
0.440850 16.686930 -2.877920 4.545732 33.545745 -6.907010 -14.843148 12.077173 2.999768 -2.624838 0.794371 2.405737 -12.673448 7.227163 10.518187 0.773616 4.316317 3.191987 0.561780 0.173460 0.708420 18.680961 -11.752411 2.436092 -17.295401 1.190997 -20.816391 8.914674 -14.742659 46.307763 -1.238082 -7.650709 1.489744 -0.321890 -0.442250 0.249080 -5.749868 0.540571 -7.544425 41.381122 -19.057574 10.076009 -44.378294 -5.119701 11.746292 15.314040 -4.997951 -20.299917 -19.633527 -3.460658 58.637559 6.399030 -21.475950 -10.937670 -12.353479 -1.973984 2.329630 -54.762802 8.669779 -17.745062 -1.586968 -34.288453 -2.257826 -2.528722 3.383816 0.591710 -0.571070 0.542320 0.144170 -19.446186 15.907673 18.958100 0.559559 -5.680975 -2.423464 -8.271444 5.541290 0.645667 3.266323 -1.095987 0.356980 -0.259320 -0.530410 0.057900 
0.441830 16.685690 -2.883780 4.713087 33.627816 -6.954250 -14.846782 12.053848 3.004312 -2.773701 0.924260 2.737876 -12.638764 7.172775 10.131657 0.789028 4.300209 3.198869 0.564130 0.183440 0.704190 18.685596 -11.720833 2.458381 -17.732065 1.194906 -21.149513 9.060610 -15.013771 46.853895 -1.261325 -7.772332 1.447815 -0.319020 -0.443260 0.249370 -5.748490 0.533252 -7.564539 41.348288 -19.293884 10.226383 -44.308576 -5.285614 11.797791 15.268927 -5.096016 -20.288655 -19.743461 -3.446385 58.309685 6.446290 -21.392920 -11.000300 -12.416617 -2.023746 2.384280 -54.502456 8.934453 -17.857274 -2.121495 -34.571969 -2.126454 -2.517446 3.399576 0.583180 -0.571150 0.544170 0.148520 -19.324807 15.938180 18.959626 0.463764 -5.602721 -2.388412 -8.664465 5.023888 0.622851 3.309823 -1.090734 0.363490 -0.262710 -0.535470 0.064160 
0.443050 16.685660 -2.889150 4.767963 33.588071 -7.072213 -14.850007 12.037706 3.011299 -2.840380 1.061170 3.115084 -12.585620 7.100570 9.638548 0.802981 4.278253 3.208144 0.573680 0.201120 0.709350 18.688186 -11.686296 2.486443 -18.110855 1.236643 -21.439632 9.254729 -15.273744 47.334835 -1.286760 -7.883515 1.412615 -0.314020 -0.448640 0.249480 -5.739881 0.514591 -7.589626 41.377122 -19.501214 10.413899 -44.179653 -5.398911 11.865721 15.275385 -5.089383 -20.329652 -19.687578 -3.520224 58.212176 6.202440 -21.276010 -11.126880 -12.565108 -2.202638 2.448499 -54.195221 9.180688 -17.908230 -2.659434 -34.626028 -1.984889 -2.504052 3.410038 0.576790 -0.572510 0.549920 0.153110 -19.220908 16.065246 18.992401 0.363535 -5.519308 -2.344942 -9.022594 4.428432 0.599077 3.354589 -1.078437 0.372280 -0.264540 -0.545680 0.069060 
0.443210 16.688200 -2.893990 4.713546 33.548931 -7.257010 -14.853857 12.028107 3.017845 -2.790376 1.182297 3.491099 -12.556964 7.035282 9.127993 0.814027 4.267973 3.214056 0.578920 0.212500 0.712880 18.687506 -11.654616 2.514188 -18.435665 1.264709 -21.621260 9.532273 -15.532804 47.640560 -1.309904 -7.972607 1.384002 -0.310700 -0.452350 0.250620 -5.728517 0.490167 -7.614386 41.506181 -19.729435 10.609659 -44.065386 -5.499772 11.898085 15.303922 -5.036678 -20.399863 -19.569489 -3.650264 58.226452 5.956330 -21.221670 -11.363750 -12.760666 -2.453588 2.508220 -53.864230 9.381487 -17.890057 -3.114337 -34.497764 -1.857189 -2.495127 3.413411 0.574030 -0.574260 0.557040 0.156700 -19.117325 16.251844 19.042135 0.291314 -5.476265 -2.329039 -9.322426 3.828815 0.585115 3.395377 -1.056424 0.377740 -0.262090 -0.551360 0.072630 
0.442730 16.692560 -2.896890 4.629552 33.422699 -7.442191 -14.855682 12.025999 3.025142 -2.708440 1.271506 3.788958 -12.540853 6.988642 8.739965 0.828364 4.259160 3.220175 0.587630 0.228030 0.722720 18.685375 -11.630871 2.540462 -18.748564 1.286902 -21.715639 9.829825 -15.742341 47.765986 -1.327868 -8.031437 1.365867 -0.306220 -0.458240 0.252590 -5.715959 0.467883 -7.640406 41.631426 -19.882730 10.824895 -43.927081 -5.530659 11.882196 15.325122 -4.896645 -20.502176 -19.278337 -3.858681 58.411858 5.674640 -21.199530 -11.564850 -13.009927 -2.765839 2.587016 -53.531673 9.587785 -17.862824 -3.491047 -34.305318 -1.741342 -2.482959 3.412447 0.571930 -0.576530 0.568990 0.161890 -18.952939 16.476508 19.106765 0.226144 -5.527441 -2.351529 -9.612093 3.366475 0.572006 3.434403 -1.041790 0.384290 -0.260490 -0.564380 0.077800 
0.441140 16.695600 -2.898500 4.588373 33.256849 -7.539226 -14.856071 12.026533 3.031051 -2.680357 1.329060 3.951043 -12.518476 6.959673 8.510617 0.834595 4.251104 3.222798 0.589420 0.234500 0.729100 18.684056 -11.612062 2.563439 -19.057778 1.285877 -21.813957 10.087455 -15.902378 47.778087 -1.335376 -8.064633 1.354594 -0.304500 -0.464850 0.249760 -5.703833 0.444289 -7.660920 41.723461 -19.952016 10.970671 -43.823723 -5.505198 11.860610 15.354719 -4.714324 -20.607028 -18.926288 -4.090559 58.649782 5.328190 -21.194720 -11.622680 -13.211032 -3.078648 2.662688 -53.204310 9.712325 -17.787626 -3.793985 -34.110156 -1.645141 -2.477135 3.409478 0.568900 -0.578560 0.574140 0.160050 -18.844281 16.681654 19.156516 0.242528 -5.562990 -2.392124 -9.845013 2.975571 0.564667 3.464452 -1.024718 0.387430 -0.257620 -0.568030 0.077740 
0.437690 16.699640 -2.898850 4.591272 33.046007 -7.625004 -14.852832 12.022555 3.038119 -2.684213 1.371853 4.092101 -12.523798 6.946040 8.359129 0.840910 4.246831 3.223985 0.593280 0.240650 0.742940 18.685220 -11.605630 2.579802 -19.383343 1.269059 -21.809778 10.349879 -16.004570 47.609120 -1.340241 -8.062260 1.351983 -0.305010 -0.472970 0.248380 -5.700021 0.445662 -7.681753 41.741040 -19.963432 11.134335 -43.718575 -5.425792 11.842607 15.317433 -4.444109 -20.774097 -18.429164 -4.275523 59.249266 5.203020 -21.186030 -11.840390 -13.355387 -3.455288 2.832898 -53.008625 9.964766 -17.879415 -4.082617 -34.232643 -1.588672 -2.465008 3.402152 0.573590 -0.584680 0.585830 0.156680 -18.663395 16.899284 19.228143 0.235706 -5.640794 -2.425238 -10.032986 2.581425 0.568448 3.495066 -0.998015 0.390220 -0.252330 -0.573590 0.076610 
0.433810 16.703390 -2.898090 4.565017 32.822906 -7.674529 -14.848526 12.019016 3.038017 -2.700634 1.381551 4.120094 -12.458832 6.928969 8.339068 0.846649 4.230295 3.226232 0.598030 0.247850 0.756090 18.687230 -11.599700 2.600528 -19.712867 1.254371 -21.778627 10.714862 -16.132370 47.327942 -1.345217 -8.051279 1.353836 -0.307440 -0.484070 0.247590 -5.697716 0.452330 -7.699690 41.807692 -19.927835 11.225277 -43.633919 -5.317628 11.797458 15.263759 -4.171113 -20.930970 -17.916110 -4.446174 59.894641 5.104540 -21.146780 -12.076400 -13.493863 -3.784463 3.028379 -52.970362 10.310088 -18.113652 -4.296988 -34.616753 -1.570872 -2.450947 3.401339 0.576400 -0.592250 0.598130 0.153180 -18.452815 17.070523 19.288187 0.140112 -5.707626 -2.414487 -10.114861 2.217266 0.580118 3.518615 -0.968126 0.397400 -0.249050 -0.577690 0.074990 
0.429320 16.706560 -2.896360 4.511381 32.571956 -7.696942 -14.843336 12.014109 3.032495 -2.691482 1.375695 4.074866 -12.405159 6.913768 8.345915 0.848375 4.206654 3.229504 0.599800 0.256960 0.762420 18.691123 -11.592204 2.621483 -20.017886 1.235812 -21.750096 11.123457 -16.259777 46.971925 -1.346383 -8.033477 1.358012 -0.307800 -0.493650 0.241950 -5.696377 0.462210 -7.711806 41.933705 -19.883639 11.259830 -43.591831 -5.216190 11.740133 15.210700 -3.971847 -21.055590 -17.576356 -4.527113 60.459644 5.168680 -21.121880 -12.379660 -13.581342 -4.047834 3.201025 -53.010698 10.553945 -18.312113 -4.403866 -34.964245 -1.571448 -2.437541 3.396864 0.579030 -0.600110 0.608030 0.148980 -18.272559 17.197623 19.311227 0.014141 -5.728279 -2.405269 -10.177780 1.939393 0.589441 3.537535 -0.940639 0.401780 -0.244410 -0.580500 0.075140 
0.424310 16.708300 -2.892790 4.476450 32.284439 -7.651359 -14.837305 12.005044 3.024699 -2.703576 1.363743 3.989524 -12.337567 6.884059 8.317593 0.851230 4.178818 3.237961 0.602280 0.262760 0.768630 18.697404 -11.580026 2.645318 -20.336247 1.222523 -21.729974 11.603056 -16.402937 46.557890 -1.347122 -8.017655 1.362768 -0.309610 -0.500120 0.238870 -5.694655 0.468778 -7.719941 42.071172 -19.854719 11.240106 -43.657252 -5.127832 11.676956 15.195510 -3.861615 -21.169769 -17.406324 -4.580679 60.774040 5.236010 -21.131970 -12.566790 -13.591594 -4.160704 3.306357 -53.040113 10.753921 -18.497263 -4.548178 -35.386239 -1.557090 -2.424629 3.397305 0.580080 -0.605820 0.615460 0.148400 -18.229292 17.312209 19.321089 -0.011297 -5.641335 -2.389318 -10.155942 1.749724 0.597683 3.550577 -0.920080 0.406160 -0.241800 -0.585220 0.075860 
0.419980 16.710510 -2.888820 4.424414 31.956017 -7.566592 -14.830894 11.995155 3.015026 -2.712101 1.343161 3.858188 -12.282326 6.850943 8.283940 0.857036 4.145316 3.248190 0.607890 0.272030 0.773870 18.704595 -11.563050 2.672925 -20.659343 1.212516 -21.717018 12.166600 -16.553045 46.041522 -1.346265 -7.997479 1.369540 -0.310220 -0.507440 0.237900 -5.690833 0.470665 -7.724760 42.290056 -19.843002 11.179205 -43.811015 -5.045721 11.570288 15.219470 -3.825726 -21.285643 -17.417861 -4.577258 60.958799 5.274960 -21.178210 -12.658350 -13.653081 -4.221458 3.369713 -53.016199 10.965937 -18.656743 -4.635562 -35.750326 -1.540176 -2.408342 3.405199 0.578200 -0.611080 0.623100 0.151700 -18.196678 17.450100 19.315822 -0.043436 -5.531517 -2.384471 -10.150261 1.569999 0.600643 3.566954 -0.907139 0.413540 -0.244010 -0.594170 0.079240 
